<?xml version="1.0" encoding="UTF-8" standalone="no"?>
<!-- Created with Inkscape (http://www.inkscape.org/) -->

<svg
   xmlns:dc="http://purl.org/dc/elements/1.1/"
   xmlns:cc="http://creativecommons.org/ns#"
   xmlns:rdf="http://www.w3.org/1999/02/22-rdf-syntax-ns#"
   xmlns:svg="http://www.w3.org/2000/svg"
   xmlns="http://www.w3.org/2000/svg"
   xmlns:sodipodi="http://sodipodi.sourceforge.net/DTD/sodipodi-0.dtd"
   xmlns:inkscape="http://www.inkscape.org/namespaces/inkscape"
   width="1024"
   height="1024"
   viewBox="0 0 270.93333 270.93334"
   version="1.1"
   id="svg8"
   inkscape:version="0.92.3 (2405546, 2018-03-11)"
   sodipodi:docname="9.svg">
  <defs
     id="defs2" />
  <sodipodi:namedview
     id="base"
     pagecolor="#ffffff"
     bordercolor="#666666"
     borderopacity="1.0"
     inkscape:pageopacity="0.0"
     inkscape:pageshadow="2"
     inkscape:zoom="0.49497475"
     inkscape:cx="442.18378"
     inkscape:cy="456.29355"
     inkscape:document-units="mm"
     inkscape:current-layer="layer1"
     showgrid="false"
     units="px"
     inkscape:window-width="1920"
     inkscape:window-height="1051"
     inkscape:window-x="1920"
     inkscape:window-y="0"
     inkscape:window-maximized="1" />
  <metadata
     id="metadata5">
    <rdf:RDF>
      <cc:Work
         rdf:about="">
        <dc:format>image/svg+xml</dc:format>
        <dc:type
           rdf:resource="http://purl.org/dc/dcmitype/StillImage" />
        <dc:title></dc:title>
      </cc:Work>
    </rdf:RDF>
  </metadata>
  <g
     inkscape:label="Layer 1"
     inkscape:groupmode="layer"
     id="layer1"
     transform="translate(0,-26.06665)">
    <g
       id="Layer_3"
       transform="matrix(1.0674725,0,0,1.0674725,-320.41401,-161.44753)" />
    <g
       id="Layer_1"
       transform="matrix(1.0674725,0,0,1.0674725,-320.41401,-161.44753)" />
    <g
       id="Layer_10"
       transform="matrix(1.0674725,0,0,1.0674725,-320.41401,-161.44753)" />
    <g
       id="Layer_11"
       transform="matrix(1.0674725,0,0,1.0674725,-320.41401,-161.44753)" />
    <g
       id="Layer_12"
       transform="matrix(1.0674725,0,0,1.0674725,-320.41401,-161.44753)" />
    <g
       id="Layer_13"
       transform="matrix(1.0674725,0,0,1.0674725,-320.41401,-161.44753)" />
    <g
       id="Layer_7"
       transform="matrix(1.0674725,0,0,1.0674725,-320.41401,-161.44753)" />
    <g
       id="Layer_8"
       transform="matrix(1.0674725,0,0,1.0674725,-320.41401,-161.44753)" />
    <g
       id="Layer_9"
       transform="matrix(1.0674725,0,0,1.0674725,-320.41401,-161.44753)" />
    <g
       id="Layer_15"
       transform="matrix(1.0674725,0,0,1.0674725,-320.41401,-161.44753)" />
    <g
       id="Layer_19"
       transform="matrix(1.0674725,0,0,1.0674725,-320.41401,-161.44753)" />
    <g
       id="g2491">
      <g
         transform="matrix(1.0674725,0,0,1.0674725,-320.41401,-161.44753)"
         id="Layer_16">
        <polygon
           id="polygon1564"
           points="348.11,187.831 348.11,382.496 306.11,419.83 306.11,225.831 "
           style="fill:#60bf84" />
      </g>
      <g
         transform="matrix(1.0674725,0,0,1.0674725,-320.41401,-161.44753)"
         id="Layer_18">
        <polygon
           id="polygon1567"
           points="403.688,225.831 445.688,187.831 445.688,297.832 403.688,297.832 "
           style="fill:#4a4a4a" />
        <polygon
           id="polygon1569"
           points="445.688,382.496 403.688,419.83 403.688,337.164 445.688,337.164 "
           style="fill:#4a4a4a" />
      </g>
      <g
         style="fill:none;stroke:#4a4a4a;stroke-opacity:1"
         transform="matrix(1.0674725,0,0,1.0674725,-320.41401,-161.44753)"
         id="Layer_14">
        <polyline
           id="polyline1573"
           points="403.688,297.83 505.021,297.83    505.021,226.497 547.021,185.164 547.021,375.83 505.688,419.83 505.688,337.164 403.688,337.164  "
           stroke-miterlimit="10"
           style="fill:none;stroke:#4a4a4a;stroke-width:2;stroke-miterlimit:10;stroke-opacity:1" />
      </g>
    </g>
    <g
       id="Layer_4"
       transform="matrix(1.0674725,0,0,1.0674725,-320.41401,-161.44753)" />
    <g
       id="Layer_4_copy"
       transform="matrix(1.0674725,0,0,1.0674725,-320.41401,-161.44753)" />
    <g
       id="Layer_4_copy_2"
       transform="matrix(1.0674725,0,0,1.0674725,-320.41401,-161.44753)" />
    <g
       id="Layer_2"
       transform="matrix(1.0674725,0,0,1.0674725,-320.41401,-161.44753)" />
  </g>
</svg>
