<?xml version="1.0" encoding="UTF-8" standalone="no"?>
<svg
   xmlns:dc="http://purl.org/dc/elements/1.1/"
   xmlns:cc="http://creativecommons.org/ns#"
   xmlns:rdf="http://www.w3.org/1999/02/22-rdf-syntax-ns#"
   xmlns:svg="http://www.w3.org/2000/svg"
   xmlns="http://www.w3.org/2000/svg"
   viewBox="0 0 440 333.33334"
   height="333.33334"
   width="440"
   xml:space="preserve"
   id="svg2"
   version="1.1"><metadata
     id="metadata8"><rdf:RDF><cc:Work
         rdf:about=""><dc:format>image/svg+xml</dc:format><dc:type
           rdf:resource="http://purl.org/dc/dcmitype/StillImage" /></cc:Work></rdf:RDF></metadata><defs
     id="defs6"><radialGradient
       id="radialGradient38"
       spreadMethod="pad"
       gradientTransform="matrix(67.553101,0,0,-67.553101,174.29004,165.82373)"
       gradientUnits="userSpaceOnUse"
       r="1"
       cy="0"
       cx="0"
       fy="0"
       fx="0"><stop
         id="stop34"
         offset="0"
         style="stop-opacity:1;stop-color:#ffffff" /><stop
         id="stop36"
         offset="1"
         style="stop-opacity:1;stop-color:#434345" /></radialGradient><radialGradient
       id="radialGradient66"
       spreadMethod="pad"
       gradientTransform="matrix(56.587692,0,0,-56.587677,220.6084,112.34082)"
       gradientUnits="userSpaceOnUse"
       r="1"
       cy="0"
       cx="0"
       fy="0"
       fx="0"><stop
         id="stop62"
         offset="0"
         style="stop-opacity:1;stop-color:#00ea90" /><stop
         id="stop64"
         offset="1"
         style="stop-opacity:1;stop-color:#0ca579" /></radialGradient><clipPath
       id="clipPath84"
       clipPathUnits="userSpaceOnUse"><path
         id="path82"
         d="M 0,250 H 330 V 0 H 0 Z" /></clipPath></defs><g
     transform="matrix(1.3333333,0,0,-1.3333333,0,333.33333)"
     id="g10"><path
       id="path12"
       style="fill:#000000;fill-opacity:1;fill-rule:nonzero;stroke:none"
       d="M 0,0 H 330 V 250 H 0 Z" /><g
       transform="translate(150.6504,95.2617)"
       id="g14"><path
         id="path16"
         style="fill:#494949;fill-opacity:1;fill-rule:nonzero;stroke:none"
         d="m 0,0 -4.708,-9.111 h -15.793 l 6.985,11.088" /></g><g
       transform="translate(186.792,87.3652)"
       id="g18"><path
         id="path20"
         style="fill:#999999;fill-opacity:1;fill-rule:nonzero;stroke:none"
         d="m 0,0 h -54.669 l 4.135,6.43 h -15.368 l -10.483,-17.971 81.7,-0.303 z" /></g><g
       id="g22"><g
         id="g24"><g
           id="g30"><g
             id="g32"><path
               id="path40"
               style="fill:url(#radialGradient38);stroke:none"
               d="m 154.853,186.68 64.59,-111.159 -7.086,-12.353 -57.912,98.81 -26.928,-46.164 -16.602,1.213" /></g></g></g></g><g
       transform="translate(135.0098,117.584)"
       id="g42"><path
         id="path44"
         style="fill:#999999;fill-opacity:1;fill-rule:nonzero;stroke:none"
         d="M 0,0 39.938,69.248 H 55.276 L 15.186,-0.455" /></g><g
       transform="translate(190.2861,186.8315)"
       id="g46"><path
         id="path48"
         style="fill:#494949;fill-opacity:1;fill-rule:nonzero;stroke:none"
         d="M 0,0 46.619,-80.486 40.089,-93.24 -0.607,-24.752 -26.12,-69.398 -40.396,-70.31 Z" /></g><g
       id="g50"><g
         id="g52"><g
           id="g58"><g
             id="g60"><path
               id="path68"
               style="fill:url(#radialGradient66);stroke:none"
               d="M 181.782,152.208 208.964,106.5 93.095,105.891 103.424,93.744 h 126.951 l -41,69.246" /></g></g></g></g><g
       transform="translate(110.4072,75.8242)"
       id="g70"><path
         id="path72"
         style="fill:#333333;fill-opacity:1;fill-rule:nonzero;stroke:none"
         d="M 0,0 H 80.791 L 36.295,77.144 44.038,90.051 101.95,-12.656 H 10.935 Z" /></g><g
       transform="translate(154.998,186.6797)"
       id="g74"><path
         id="path76"
         style="fill:#00ea90;fill-opacity:1;fill-rule:nonzero;stroke:none"
         d="m 0,0 h -15.187 l -46.569,-80.789 115.868,0.609 -7.082,11.608 -86.92,0.134 z" /></g><g
       id="g78"><g
         clip-path="url(#clipPath84)"
         id="g80"><g
           transform="translate(174.1318,130.9624)"
           id="g86"><path
             id="path88"
             style="fill:#333333;fill-opacity:1;fill-rule:nonzero;stroke:none"
             d="M 0,0 C -2.273,-4.285 -5.421,-8.029 -7.606,-12.363 L 17.066,-55.138 H -63.725 L -52.79,-67.794 H 38.226 Z" /></g><g
           transform="translate(154.8525,186.6797)"
           id="g90"><path
             id="path92"
             style="fill:#0ca579;fill-opacity:1;fill-rule:nonzero;stroke:none"
             d="m 0,0 -39.89,-68.438 h 14.023 l 25.46,43.736 57.912,-98.81 7.086,12.354 z" /></g><g
           transform="translate(151.6768,119.7051)"
           id="g94"><path
             id="path96"
             style="fill:#999999;fill-opacity:1;fill-rule:nonzero;stroke:none"
             d="M 0,0 38.609,67.126 H 23.271 L -15.445,0 Z" /></g><g
           transform="translate(190.2861,186.8315)"
           id="g98"><path
             id="path100"
             style="fill:#494949;fill-opacity:1;fill-rule:nonzero;stroke:none"
             d="m 0,0 -39.09,-68.039 h 13.747 l 24.736,43.287 40.696,-68.488 6.53,12.754 z" /></g></g></g></g></svg>